# xmcd CD database file
#
# Track frame offsets:
#	150
#	21945
#	41097
#	62892
#
# Disc length: 1092 seconds
#
# Revision: 2
# Processed by: cddbd v1.5.1PL0 Copyright (c) Steve Scherf et al.
# Submitted via: CDex 1.51
#
DISCID=32044204
DTITLE=ブルタと缶 - Wonderful　Days
DYEAR=2004
DGENRE=Anime
TTITLE0=Wonderful　Days
TTITLE1=メラメラ
TTITLE2=Wonderful　Days(Karaoke)
TTITLE3=まちぶせ(Karaoke)
EXTD=YEAR: 2004
EXTT0=
EXTT1=
EXTT2=
EXTT3=
PLAYORDER=
